<?xml version="1.0" encoding="utf-8"?>
<!-- Generator: Adobe Illustrator 17.0.0, SVG Export Plug-In . SVG Version: 6.00 Build 0)  -->
<!DOCTYPE svg PUBLIC "-//W3C//DTD SVG 1.1//EN" "http://www.w3.org/Graphics/SVG/1.1/DTD/svg11.dtd">
<svg stroke='blue' version="1.1" id="Layer_1" xmlns="http://www.w3.org/2000/svg" xmlns:xlink="http://www.w3.org/1999/xlink" x="0px" y="0px"
	 width="300px" height="75.51px" viewBox="0 0 300 75.51" enable-background="blue" xml:space="preserve">
<g>
	<path fill="#E5322D" d="M94.313,2.543c-4.785,2.309-8.374,6.2-10.995,10.612C79.104,6.071,72.405,0.326,62.259,0.326
		c-10.15,0-22.594,8.614-22.594,23.165c0,14.732,12.293,21.715,18.382,25.658c6.508,4.211,17.613,11.867,25.27,26.036
		c7.66-14.168,18.763-21.825,25.273-26.036c4.574-2.965,12.655-7.647,16.387-16.047L94.313,2.543z M93.946,33.938V6.254
		l27.684,27.683H93.946z"/>

	<polygon fill="blue" points="93.946,33.938 93.946,6.254 121.63,33.938 	"/>
</g>
</svg>
